<?xml version="1.0" standalone="no"?>
<!DOCTYPE svg PUBLIC "-//W3C//DTD SVG 20010904//EN"
 "http://www.w3.org/TR/2001/REC-SVG-20010904/DTD/svg10.dtd">
<svg version="1.0" xmlns="http://www.w3.org/2000/svg"
 width="500.000000pt" height="500.000000pt" viewBox="0 0 500.000000 500.000000"
 preserveAspectRatio="xMidYMid meet">

<g transform="translate(0.000000,500.000000) scale(0.100000,-0.100000)"
fill="#000000" stroke="none">
<path d="M1813 3962 l-593 -2 0 -292 0 -293 198 198 197 197 275 0 275 0 75
70 74 70 106 1 c58 1 116 0 130 0 16 -1 35 8 49 23 l23 25 -108 3 c-60 2 -376
2 -701 0z"/>
<path d="M2811 3960 c-116 -4 -132 -7 -118 -19 22 -18 22 -64 -1 -84 -23 -21
-75 -22 -92 -2 -10 12 -39 15 -142 15 l-129 0 -50 -47 -50 -48 346 -3 347 -2
30 25 c36 30 48 31 82 4 31 -25 34 -61 6 -89 -27 -27 -52 -25 -90 6 l-31 27
-640 -5 -640 -4 -210 -210 c-236 -236 -247 -254 -155 -254 l54 0 178 185 178
185 411 0 412 0 36 -44 37 -43 329 -1 330 0 57 69 56 69 172 0 c171 0 173 0
196 25 43 46 110 21 110 -41 0 -47 -71 -74 -109 -40 -15 13 -44 16 -184 16
l-165 0 -37 -42 -36 -43 40 -3 c30 -2 46 2 63 17 29 27 59 26 86 -2 27 -28 28
-48 4 -77 -24 -30 -70 -30 -94 0 -18 22 -22 23 -131 17 -62 -4 -125 -7 -142
-7 l-29 0 49 -50 49 -50 178 0 c165 0 179 1 198 20 39 39 100 14 100 -42 0
-52 -69 -77 -105 -38 -17 19 -31 20 -200 20 -204 0 -175 -9 -283 94 l-53 51
-235 0 -235 0 -35 43 -36 42 -393 0 -393 0 -127 -135 c-70 -74 -138 -147 -151
-162 l-24 -28 675 -3 675 -2 0 -592 0 -591 580 580 580 580 0 356 0 357 -482
2 c-266 2 -543 1 -617 -2z"/>
<path d="M1733 2275 l-533 -537 0 -364 0 -364 473 0 473 0 243 241 242 241
233 -1 233 -2 66 71 67 70 134 0 c110 0 140 3 165 17 28 16 33 17 58 3 20 -11
29 -25 31 -47 6 -59 -71 -82 -106 -32 -12 17 -28 19 -140 19 l-127 0 -43 -50
-43 -50 326 0 c317 0 327 1 355 21 16 12 36 19 44 16 14 -6 16 6 16 88 l0 95
-457 3 c-252 1 -618 2 -813 2 l-355 0 -5 549 -5 548 -532 -537z"/>
<path d="M2425 1230 c-185 -185 -216 -220 -195 -221 14 0 43 -2 65 -4 44 -3
34 -13 303 273 l97 102 355 0 355 -1 40 -39 40 -40 208 0 207 0 0 60 c0 50 -3
58 -16 53 -8 -3 -28 4 -44 16 -29 21 -33 21 -612 21 l-583 0 -220 -220z"/>
<path d="M2559 1179 c-85 -89 -155 -164 -156 -168 -2 -3 129 -5 290 -5 160 1
498 2 750 3 l457 1 0 125 0 125 -212 0 -212 0 -47 40 -48 40 -334 0 -334 0
-154 -161z"/>
</g>
</svg>
