<?xml version="1.0" encoding="UTF-8"?>
<svg version="1.1" xmlns="http://www.w3.org/2000/svg" width="1600" height="525">
<path d="M0 0 C7.03285805 -0.08791073 14.00270746 0.02288334 21.02587891 0.3581543 C40.87506326 1.30482776 60.75205805 1.48335844 80.59814453 0.35595703 C87.07005837 -0.00842041 93.51850032 -0.0500663 100 0 C100.25990723 0.680625 100.51981445 1.36125 100.78759766 2.0625 C111.79536887 30.76763724 124.33206556 58.75137595 137.12042236 86.69943237 C139.0448065 90.90576829 140.96190574 95.11531274 142.87223816 99.32804871 C150.58231314 116.32971808 158.4358026 133.25845108 166.4375 150.125 C166.86067505 151.01841095 167.2838501 151.9118219 167.71984863 152.83230591 C168.913502 155.35038524 170.11036843 157.86690607 171.30859375 160.3828125 C171.66821701 161.14143082 172.02784027 161.90004913 172.39836121 162.68165588 C173.85032309 166.07054731 173.85032309 166.07054731 176 169 C183.93715266 152.18281673 191.87028116 135.36473842 199.63867188 118.46875 C202.09901631 113.11758365 204.56984613 107.77188231 207.06640625 102.4375 C219.91086746 74.97946103 232.32408264 47.41633639 243.23046875 19.125 C245.7070664 12.7009188 248.31248609 6.33849013 251 0 C259.33904045 -0.1018521 267.60982985 0.09190483 275.9375 0.5 C292.42739046 1.27601078 308.83024151 1.20762237 325.31518555 0.3581543 C332.55764801 -0.01003904 339.74607877 -0.08059912 347 0 C347 4.62 347 9.24 347 14 C345.04835938 14.39832031 343.09671875 14.79664062 341.0859375 15.20703125 C339.17939956 15.60364681 337.27287385 16.00032369 335.36669922 16.39868164 C333.40581928 16.80609663 331.44315159 17.20487643 329.48046875 17.60351562 C328.23652344 17.86455078 326.99257812 18.12558594 325.7109375 18.39453125 C324.56931152 18.63018799 323.42768555 18.86584473 322.25146484 19.10864258 C318.83969042 20.04394731 316.03975307 21.19141029 313 23 C309.19058153 29.8306814 308.87623142 36.85748579 308.86628723 44.53878784 C308.86402167 45.26529104 308.86175612 45.99179425 308.85942191 46.7403127 C308.85312769 49.15745803 308.85390831 51.57454663 308.85473633 53.99169922 C308.851742 55.73180208 308.84833884 57.47190428 308.84455872 59.21200562 C308.835743 63.92692462 308.83338164 68.64182547 308.83274293 73.35675192 C308.83203113 76.30520026 308.82989435 79.25364402 308.82724571 82.20209122 C308.81800081 92.49589581 308.81390982 102.78968748 308.81469727 113.08349609 C308.81529805 122.66684273 308.8047439 132.25013307 308.7889536 141.83346546 C308.77586406 150.07232295 308.77051395 158.31116207 308.77115268 166.55002987 C308.77140722 171.46587742 308.76858011 176.3816749 308.75797462 181.29751205 C308.74826968 185.92191529 308.74823088 190.54622084 308.75549126 195.17062759 C308.75653407 196.86326491 308.75419228 198.55590838 308.7481308 200.24853516 C308.61069365 212.27660148 308.61069365 212.27660148 311 224 C315.15308188 227.85599107 319.66702758 228.95630245 325.0625 230.0625 C325.80040771 230.22459961 326.53831543 230.38669922 327.29858398 230.55371094 C328.80218215 230.88384421 330.30682828 231.20924176 331.8125 231.52978516 C335.07198765 232.23042949 338.31593598 232.99175643 341.5625 233.75 C343.356875 234.1625 345.15125 234.575 347 235 C347 239.62 347 244.24 347 249 C345.18113281 248.9278125 343.36226562 248.855625 341.48828125 248.78125 C299.02937653 247.26080241 256.45528047 247.43893913 214 249 C214 244.38 214 239.76 214 235 C216.660625 234.38125 216.660625 234.38125 219.375 233.75 C221.13457031 233.33814453 221.13457031 233.33814453 222.9296875 232.91796875 C225.84306452 232.2479355 228.76403708 231.63739512 231.6953125 231.05078125 C232.49146973 230.88674805 233.28762695 230.72271484 234.10791016 230.55371094 C235.67560405 230.23178808 237.24559763 229.92082546 238.81787109 229.62207031 C243.45102632 228.65516874 246.66681321 227.57571344 250 224 C251.69106452 219.81950837 252.25634314 216.26994851 252.28520203 211.77853394 C252.30411499 209.93685387 252.30411499 209.93685387 252.32341003 208.05796814 C252.32736934 206.71035821 252.33113168 205.36274769 252.3347168 204.01513672 C252.34566164 202.58545793 252.35745345 201.1557854 252.37002563 199.72612 C252.40155522 195.85184669 252.4208532 191.97760025 252.43764853 188.10323858 C252.45706158 184.03689221 252.48677288 179.97061968 252.51509094 175.90432739 C252.56113243 169.07003455 252.59952552 162.23573224 252.63305664 155.40136719 C252.67176304 147.52500191 252.72103648 139.6487599 252.77638692 131.77249515 C252.82966025 124.17357539 252.87673287 116.5746305 252.92057228 108.97565079 C252.93918561 105.75347659 252.95967247 102.53132261 252.98166466 99.30916977 C253.00726683 95.50230943 253.02731803 91.69545659 253.043293 87.88854408 C253.04993213 86.50031992 253.05833519 85.11210275 253.06874657 83.72390175 C253.12958651 75.42292899 252.85053643 67.25964922 252 59 C242.45023134 79.45753194 232.95685983 99.93316786 223.83602905 120.58609009 C218.90901404 131.74110548 213.89819867 142.853925 208.8125 153.9375 C202.70661888 167.24825125 196.67860382 180.59079028 190.70387268 193.96107483 C188.24432925 199.46138418 185.77143311 204.95565072 183.296875 210.44921875 C182.89008514 211.35240341 182.48329529 212.25558807 182.06417847 213.18614197 C180.43480078 216.80345709 178.8052537 220.42069523 177.17462158 224.03744507 C176.04035062 226.55336496 174.90684084 229.06962666 173.7734375 231.5859375 C173.43648865 232.33264206 173.09953979 233.07934662 172.75238037 233.84867859 C170.7873305 238.21309993 168.87236525 242.59498775 167 247 C162.05 247 157.1 247 152 247 C147.4528848 238.02498236 143.12977117 229.0171353 139.0625 219.8125 C137.92671443 217.25811635 136.78783651 214.70511736 135.6484375 212.15234375 C135.20660378 211.16176971 135.20660378 211.16176971 134.75584412 210.15118408 C131.28055927 202.3707918 127.73570444 194.62234196 124.1875 186.875 C123.85299835 186.14439362 123.5184967 185.41378723 123.17385864 184.66104126 C121.46597781 180.93096734 119.757372 177.20122622 118.04833984 173.47167969 C115.02698898 166.87732329 112.01248603 160.27983712 108.99752808 153.68255615 C107.99733517 151.49416945 106.99688143 149.30590219 105.99633789 147.11767578 C103.0129697 140.59280978 100.03032544 134.06761797 97.05155945 127.54064941 C95.40987734 123.94353594 93.76751553 120.34673299 92.125 116.75 C91.8032077 116.04520508 91.48141541 115.34041016 91.14987183 114.61425781 C87.12960208 105.81141153 83.08922964 97.01810087 79.02734375 88.234375 C78.61222534 87.33644226 78.19710693 86.43850952 77.76940918 85.5133667 C75.7400985 81.1246624 73.7087435 76.7369208 71.67431641 72.35058594 C70.94038746 70.7649935 70.20649864 69.17938249 69.47265625 67.59375 C68.96604713 66.50413971 68.96604713 66.50413971 68.44920349 65.39251709 C67.16638621 62.61774047 65.96763521 59.90290563 65 57 C64.20567861 69.18080098 63.83766818 81.29467386 63.875 93.5 C63.87621857 94.38421631 63.87743713 95.26843262 63.87869263 96.17944336 C63.90923437 115.79621504 64.15517792 135.41197926 64.40616608 155.02694702 C64.43719236 157.4757189 64.46708841 159.92450245 64.49676514 162.37329102 C62.40358996 194.55479127 62.40358996 194.55479127 68.5 224.875 C74.51637008 229.98891457 83.37291154 230.79601397 90.9375 232.125 C92.80125257 232.45831275 94.66456047 232.79412463 96.52734375 233.1328125 C97.33937256 233.27605957 98.15140137 233.41930664 98.98803711 233.56689453 C101 234 101 234 103 235 C103 239.62 103 244.24 103 249 C100.9576416 248.89389404 100.9576416 248.89389404 98.87402344 248.78564453 C83.99187265 248.05255406 69.14842464 247.84110142 54.25 247.875 C52.55466125 247.87632935 52.55466125 247.87632935 50.82507324 247.87768555 C34.19591269 247.89297889 17.60818972 248.10913925 1 249 C1 244.38 1 239.76 1 235 C3.7225 234.38125 3.7225 234.38125 6.5 233.75 C8.32956663 233.3226999 10.15911276 232.89530982 11.98828125 232.46630859 C13.35938167 232.14849284 14.73185466 231.83655472 16.10546875 231.52978516 C18.23999754 231.05301541 20.36997956 230.55897835 22.5 230.0625 C23.16966797 229.9171582 23.83933594 229.77181641 24.52929688 229.62207031 C28.90664203 228.5795304 31.8305333 227.20965921 35 224 C40.31045317 212.73839962 38.30555584 197.19566729 38.53515625 184.9609375 C38.57856002 182.77942532 38.62215883 180.59791701 38.66593933 178.41641235 C38.80476358 171.40272755 38.93402463 164.38888074 39.0625 157.375 C39.10712627 154.97428365 39.15176334 152.57356751 39.19641113 150.17285156 C39.7260623 121.47155005 40.20928169 92.77048721 40.24631882 64.06372833 C40.24997669 62.013069 40.25726451 59.96245017 40.26541138 57.9118042 C40.27696991 54.1702581 40.27425638 50.42904754 40.265625 46.6875 C40.26958786 45.6319693 40.27355072 44.5764386 40.27763367 43.48892212 C40.27258436 32.08822258 40.27258436 32.08822258 35.7578125 21.9765625 C32.68930855 19.77732312 30.57732407 19.04409471 26.875 18.375 C25.05742188 18.03662109 25.05742188 18.03662109 23.203125 17.69140625 C21.80262811 17.45764984 20.40153443 17.22745294 19 17 C17.75959961 16.79479736 17.75959961 16.79479736 16.49414062 16.58544922 C11.00204532 15.68265297 5.5039356 14.82735066 0 14 C0 9.38 0 4.76 0 0 Z " fill="#B68733" transform="translate(999,94)"/>
<path d="M0 0 C1.00698323 -0.00445784 2.01396645 -0.00891569 3.05146432 -0.01350862 C4.16602998 -0.01332426 5.28059563 -0.01313989 6.428936 -0.01294994 C7.60655809 -0.01662663 8.78418018 -0.02030332 9.99748778 -0.02409142 C13.27644651 -0.03322996 16.55537582 -0.03783052 19.8343451 -0.04048073 C23.36684465 -0.04437955 26.89932964 -0.05395819 30.43181992 -0.0626936 C38.96797795 -0.08247022 47.50413719 -0.09252584 56.04031241 -0.10142139 C60.05819821 -0.10580242 64.07608269 -0.11116971 68.09396744 -0.11641026 C81.44710771 -0.13342391 94.80024716 -0.14791858 108.15339661 -0.155159 C111.61981584 -0.15706895 115.08623506 -0.15898928 118.55265427 -0.16094494 C119.41423707 -0.16142868 120.27581987 -0.16191242 121.16351125 -0.16241082 C135.1238356 -0.17071295 149.08407431 -0.19605233 163.04436126 -0.22852562 C177.3707525 -0.26157933 191.69710019 -0.27960624 206.02352977 -0.28280324 C214.0698647 -0.28496993 222.11607477 -0.29374172 230.16237259 -0.31926441 C237.01440062 -0.34094842 243.86627346 -0.34903324 250.7183319 -0.33929763 C254.21482053 -0.33474614 257.71098881 -0.3366878 261.2074337 -0.35605907 C264.99776783 -0.37366299 268.78728401 -0.36672744 272.57761765 -0.35352612 C273.68326041 -0.36449536 274.78890318 -0.37546461 275.92805028 -0.38676625 C282.03691861 -0.33524393 285.60952604 0.0508176 290.25724411 4.13422108 C296.85154428 11.09487126 296.54704118 18.45164897 296.51794052 27.53275013 C296.52176607 28.79404983 296.52559162 30.05534953 296.52953309 31.35487044 C296.53981302 34.84898711 296.53763129 38.34300117 296.53335249 41.83712626 C296.53088525 45.60818144 296.53989943 49.37921193 296.54738998 53.15025806 C296.56013919 60.53560337 296.56193039 67.92091232 296.55958972 75.30626677 C296.5578066 81.30958745 296.55955607 87.3128971 296.56381416 93.31621647 C296.56440935 94.17068037 296.56500454 95.02514427 296.56561777 95.90550102 C296.56682952 97.64135896 296.56804365 99.37721691 296.56926014 101.11307485 C296.58013659 117.39209298 296.57797273 133.67109038 296.5718753 149.95010968 C296.56670639 164.83999352 296.57796071 179.72981193 296.59697352 194.61968283 C296.61634944 209.91124542 296.62460833 225.20277704 296.62085027 240.49435198 C296.6189378 249.0783339 296.62143014 257.66226013 296.6355648 266.24623203 C296.64747646 273.55410251 296.64888594 280.86188302 296.63677464 288.16975473 C296.63088435 291.89733648 296.62979056 295.62475368 296.64177704 299.35232449 C296.65462742 303.39558843 296.64417496 307.43846043 296.63146591 311.48172474 C296.6388402 312.65663231 296.64621448 313.83153989 296.65381223 315.04205072 C296.6069682 322.11816029 296.29920107 328.56381725 291.50333786 334.19281483 C290.90650192 334.64785389 290.30966599 335.10289295 289.69474411 335.57172108 C289.09533005 336.04480701 288.49591599 336.51789295 287.87833786 337.00531483 C284.92580045 339.06141919 283.07659965 339.26115176 279.51448822 339.26844215 C278.00401338 339.27512892 278.00401338 339.27512892 276.4630239 339.28195077 C274.79117542 339.28167423 274.79117542 339.28167423 273.08555222 339.2813921 C271.90793013 339.28506879 270.73030804 339.28874547 269.51700044 339.29253358 C266.23804171 339.30167212 262.9591124 339.30627267 259.68014312 339.30892289 C256.14764357 339.3128217 252.61515858 339.32240034 249.0826683 339.33113575 C240.54651027 339.35091238 232.01035103 339.36096799 223.47417581 339.36986354 C219.45629001 339.37424457 215.43840554 339.37961187 211.42052078 339.38485241 C198.06738051 339.40186606 184.71424106 339.41636073 171.36109161 339.42360115 C167.89467238 339.42551111 164.42825316 339.42743143 160.96183395 339.42938709 C160.10025115 339.42987083 159.23866835 339.43035457 158.35097697 339.43085297 C144.39065262 339.43915511 130.43041391 339.46449449 116.47012696 339.49696777 C102.14373572 339.53002148 87.81738803 339.54804839 73.49095845 339.55124539 C65.44462352 339.55341208 57.39841345 339.56218387 49.35211563 339.58770657 C42.5000876 339.60939057 35.64821476 339.61747539 28.79615632 339.60773978 C25.29966769 339.6031883 21.80349941 339.60512995 18.30705452 339.62450123 C14.51672039 339.64210515 10.72720421 339.6351696 6.93687057 339.62196827 C5.83122781 339.63293752 4.72558504 339.64390676 3.58643794 339.65520841 C-2.5181362 339.6037223 -6.10719657 339.23035077 -10.74275589 335.13422108 C-14.49615375 330.87360729 -15.86647515 328.58482612 -15.87697697 322.95417881 C-15.88143481 321.84966051 -15.88589265 320.74514221 -15.89048558 319.60715365 C-15.89030122 318.38364145 -15.89011686 317.16012924 -15.88992691 315.8995409 C-15.8936036 314.60757935 -15.89728029 313.31561779 -15.90106839 311.98450589 C-15.91110517 308.38630783 -15.91480787 304.78812645 -15.9174577 301.18991637 C-15.9213558 297.31385604 -15.93093447 293.43780897 -15.93967056 289.56175709 C-15.95944909 280.19503878 -15.96950299 270.82831937 -15.97839835 261.4615854 C-15.98277902 257.05319007 -15.98814641 252.64479594 -15.99338722 248.23640156 C-16.01040097 233.5862131 -16.0248958 218.93602541 -16.03213596 204.28582859 C-16.03404593 200.48252582 -16.03596625 196.67922305 -16.03792191 192.8759203 C-16.03840565 191.93060028 -16.03888939 190.98528026 -16.03938778 190.01131418 C-16.04769052 174.69302292 -16.07303089 159.37480968 -16.10550258 144.0565525 C-16.13855183 128.33798614 -16.15658279 112.61945946 -16.1597802 96.90085816 C-16.1619473 88.07204906 -16.17072495 79.24335373 -16.19624138 70.41457844 C-16.21791927 62.8964741 -16.22601321 55.37851117 -16.2162746 47.86037913 C-16.21172138 44.02365651 -16.213675 40.18722584 -16.23303604 36.35054302 C-16.25383809 32.19243389 -16.2437099 28.03497578 -16.23050308 23.87683582 C-16.24147233 22.6622465 -16.25244157 21.44765718 -16.26374322 20.19626212 C-16.21510852 13.8769629 -16.06954352 9.89608389 -11.74275589 5.13422108 C-7.67437434 1.55017067 -5.38297491 0.01101706 0 0 Z M-2.51651222 14.94343203 C-4.34457424 18.20942096 -4.14591577 21.41268537 -4.10351944 25.05615711 C-4.10608271 25.85995107 -4.10864599 26.66374504 -4.11128694 27.49189639 C-4.1162328 30.18830431 -4.09971882 32.88415371 -4.08333206 35.58051014 C-4.08248596 37.51210994 -4.0829606 39.44371071 -4.08465958 41.37530994 C-4.08552162 46.62292385 -4.06786191 51.87033275 -4.0469377 57.11789894 C-4.02820583 62.60052233 -4.02642322 68.08315022 -4.02286148 73.56580067 C-4.01353076 83.94967448 -3.98890304 94.33345373 -3.95881301 104.71728587 C-3.92530099 116.53818032 -3.90879104 128.35907925 -3.89372671 140.18000937 C-3.86235441 164.49813239 -3.80957391 188.81617144 -3.74275589 213.13422108 C-3.16709003 213.16052506 -2.59142418 213.18682905 -1.9983139 213.21393013 C0.63354572 213.33562462 3.26521299 213.46108782 5.89689255 213.58661366 C6.80248917 213.6279266 7.70808578 213.66923954 8.64112473 213.71180439 C14.69793178 214.00418829 20.57503337 214.51423226 26.50724411 215.82172108 C27.32676559 215.99614735 28.14628708 216.17057362 28.99064255 216.35028553 C42.55750168 219.3971694 54.35297292 224.8386213 66.24772263 231.94916248 C69.23238789 233.70928461 72.24877766 235.41509739 75.25724411 237.13422108 C75.25724411 202.15422108 75.25724411 167.17422108 75.25724411 131.13422108 C49.66187816 127.95051172 49.66187816 127.95051172 21.01505661 135.96625233 C16.5611913 141.36842867 13.92521771 145.43004175 14.38224411 152.63422108 C15.23626246 158.4847376 17.90145531 161.83737961 22.13224411 165.88422108 C27.39250749 169.67161071 31.61380386 170.68057566 37.95255661 169.72015858 C43.14361129 168.40039891 46.86724307 166.21922264 49.86661911 161.72015858 C52.05031179 157.56132814 53.25724411 154.89916134 53.25724411 150.13422108 C57.54724411 150.13422108 61.83724411 150.13422108 66.25724411 150.13422108 C63.98173348 162.1438605 60.56943109 171.02315644 50.25724411 178.13422108 C42.08675659 182.87310384 32.50980637 183.07913217 23.50724411 180.69672108 C15.75974919 177.97057716 9.7559374 173.43198091 5.81974411 166.13422108 C1.54878194 156.16864267 1.48261747 147.71925821 4.86661911 137.36468983 C7.92637904 130.25676438 12.99792672 125.12680746 20.00724411 121.88812733 C27.08450993 119.5167518 33.45783892 118.8111004 40.88224411 118.72015858 C41.86974655 118.70079243 42.85724899 118.68142628 43.87467575 118.66147327 C47.00211304 118.60210449 50.129588 118.55546395 53.25724411 118.50922108 C55.38876982 118.47100196 57.52028073 118.43194798 59.65177536 118.39203358 C64.85347689 118.29643837 70.05525064 118.21225098 75.25724411 118.13422108 C75.25724411 115.16422108 75.25724411 112.19422108 75.25724411 109.13422108 C58.75724411 109.13422108 42.25724411 109.13422108 25.25724411 109.13422108 C25.25724411 104.84422108 25.25724411 100.55422108 25.25724411 96.13422108 C100.82724411 96.13422108 176.39724411 96.13422108 254.25724411 96.13422108 C254.25724411 100.42422108 254.25724411 104.71422108 254.25724411 109.13422108 C237.75724411 109.13422108 221.25724411 109.13422108 204.25724411 109.13422108 C204.25724411 112.10422108 204.25724411 115.07422108 204.25724411 118.13422108 C206.23132248 118.16395008 206.23132248 118.16395008 208.24528122 118.19427967 C213.16001616 118.27074643 218.07447079 118.35939867 222.98893356 118.45160389 C225.10997073 118.48972473 227.23106884 118.52460609 229.35221481 118.55609608 C232.41322634 118.60211551 235.47382445 118.66004707 238.53458786 118.72015858 C239.47245636 118.73170979 240.41032486 118.74326099 241.37661362 118.75516224 C252.47195952 119.00004987 260.83754651 121.03620767 269.05021286 128.83734608 C275.30506878 135.69452145 277.62096308 143.47583928 277.46818161 152.67328358 C276.69388869 161.70670093 273.04558628 168.90921328 266.26505661 174.89203358 C258.77632885 180.74171903 251.75196196 182.35381257 242.25724411 182.13422108 C233.12542397 180.66437332 226.25880182 177.21631955 220.25724411 170.13422108 C216.04860091 164.21003124 214.84271941 157.11031238 213.25724411 150.13422108 C217.54724411 150.13422108 221.83724411 150.13422108 226.25724411 150.13422108 C226.44286911 151.45422108 226.62849411 152.77422108 226.81974411 154.13422108 C228.09650824 159.79483965 230.84786857 163.42791526 235.25724411 167.13422108 C239.96754045 170.0733694 244.58403744 170.66491254 250.02286911 169.75531483 C255.1239127 168.33736739 258.80681073 166.21481847 261.86661911 161.82562733 C264.52701047 156.91586012 266.26351783 152.76935389 265.25724411 147.13422108 C263.00886953 140.59537023 260.31071883 136.36199612 254.22208786 132.97406483 C238.89710389 126.42362436 220.92347956 131.13422108 204.25724411 131.13422108 C204.25724411 166.11422108 204.25724411 201.09422108 204.25724411 237.13422108 C206.91227813 235.80670407 209.33966214 234.51585823 211.83927536 232.96234608 C231.45466149 220.95635685 251.24046405 214.6500802 274.25724411 213.57172108 C275.1273613 213.52853748 275.99747849 213.48535389 276.89396286 213.4408617 C279.0149263 213.33597889 281.13606844 213.23472033 283.25724411 213.13422108 C283.32725469 187.50044346 283.38019325 161.86668012 283.41268063 136.23282623 C283.42816448 124.33119166 283.44928298 112.42961641 283.48356247 100.52801991 C283.51341837 90.15733912 283.53280805 79.78670129 283.53950959 69.41597873 C283.54342832 63.92226777 283.55266932 58.42867971 283.57443428 52.93500805 C283.59473927 47.7681689 283.60109007 42.60150374 283.59656715 37.43462849 C283.59739504 35.53467394 283.60339621 33.6347138 283.61486053 31.73479366 C283.62971109 29.14760158 283.62622517 26.5610728 283.61800766 23.97386646 C283.62674618 23.21608817 283.63548471 22.45830988 283.64448804 21.67756861 C283.66519892 17.82130312 283.66519892 17.82130312 282.03100044 14.44263053 C279.7235355 12.74053149 278.36242595 12.75735688 275.50799942 12.75390434 C274.52504221 12.7454644 273.54208501 12.73702446 272.52934122 12.72832876 C270.90548384 12.73734383 270.90548384 12.73734383 269.24882126 12.74654102 C267.52693407 12.73846272 267.52693407 12.73846272 265.77026129 12.73022121 C262.57887909 12.71836323 259.38782977 12.72002563 256.19644427 12.72738802 C252.75670976 12.7321059 249.31703202 12.71962219 245.87731552 12.70937061 C239.1369181 12.6921505 232.39661377 12.69134917 225.65620005 12.69658352 C220.17955174 12.70062021 214.70293101 12.69918764 209.22628403 12.69383526 C208.44768016 12.69308684 207.66907629 12.69233841 206.86687836 12.69156731 C205.28530315 12.69003589 203.70372794 12.68849754 202.12215275 12.68695235 C187.28159724 12.67321588 172.44109441 12.67867321 157.6005401 12.69013756 C144.0132998 12.70007294 130.42619562 12.68712607 116.83897632 12.66320337 C102.89788968 12.63884194 88.95686651 12.62919709 75.01575899 12.63585609 C67.18473 12.63935468 59.35380576 12.63707418 51.52279282 12.61960506 C44.85696693 12.60492002 38.19131956 12.60419898 31.52549732 12.62167598 C28.12254519 12.63021881 24.71991244 12.63225639 21.31697655 12.61702442 C17.63290038 12.60393671 13.94970419 12.61525408 10.26566696 12.63301563 C9.18309537 12.62341063 8.10052379 12.61380562 6.985147 12.60390955 C6.00218979 12.61372384 5.01923259 12.62353813 4.0064888 12.63364983 C3.15564288 12.63375716 2.30479695 12.6338645 1.42816782 12.63397509 C-0.89431018 12.96390618 -0.89431018 12.96390618 -2.51651222 14.94343203 Z M88.25724411 109.13422108 C88.04858127 127.34545548 87.88813059 145.55627746 87.79093456 163.76845074 C87.74459764 172.22542451 87.68146687 180.68164024 87.57828903 189.13812733 C87.48836353 196.5119867 87.43046875 203.88529695 87.41044766 211.25968945 C87.39875013 215.16191665 87.37141796 219.06257345 87.3056736 222.96429539 C87.24418397 226.64362332 87.22581655 230.32074776 87.23927498 234.00054073 C87.23565152 235.98130646 87.18742148 237.96183668 87.13746262 239.94197559 C87.20815315 246.79930248 87.98439022 250.59435811 92.64971542 255.77048206 C94.1820802 257.22872539 95.71758906 258.68367713 97.25724411 260.13422108 C99.04331971 262.5061714 100.60293122 264.96615911 102.13224411 267.50922108 C104.39002189 271.16810209 106.6712698 274.68625533 109.25724411 278.13422108 C109.25724411 222.36422108 109.25724411 166.59422108 109.25724411 109.13422108 C102.32724411 109.13422108 95.39724411 109.13422108 88.25724411 109.13422108 Z M122.25724411 109.13422108 C122.25724411 180.74422108 122.25724411 252.35422108 122.25724411 326.13422108 C133.80724411 326.13422108 145.35724411 326.13422108 157.25724411 326.13422108 C157.25724411 254.52422108 157.25724411 182.91422108 157.25724411 109.13422108 C145.70724411 109.13422108 134.15724411 109.13422108 122.25724411 109.13422108 Z M170.25724411 109.13422108 C170.25724411 164.90422108 170.25724411 220.67422108 170.25724411 278.13422108 C173.73557569 273.7863066 176.68608539 269.39902315 179.55021286 264.65765858 C181.26283974 261.91501766 182.85250239 259.51283347 185.23013687 257.28869438 C189.71317597 253.05029957 191.78586536 249.92766347 192.21928024 243.69902515 C192.24230589 241.18910264 192.22156736 238.67853386 192.16544724 236.16913319 C192.1631867 234.77866211 192.16446502 233.38818151 192.16898727 231.99771595 C192.17126985 228.24751748 192.12445341 224.49939272 192.06839561 220.7496736 C192.01816582 216.82202113 192.0136687 212.89431377 192.00419235 208.96638966 C191.97939092 201.53950566 191.91383009 194.11357098 191.83339643 186.68710381 C191.7437769 178.2276985 191.69994132 169.7682463 191.65983295 161.30848396 C191.57635661 143.9164996 191.43414585 126.52549727 191.25724411 109.13422108 C184.32724411 109.13422108 177.39724411 109.13422108 170.25724411 109.13422108 Z M-3.74275589 226.13422108 C-3.74275589 233.06422108 -3.74275589 239.99422108 -3.74275589 247.13422108 C0.21724411 247.25797108 0.21724411 247.25797108 4.25724411 247.38422108 C28.02865333 248.53032712 49.49985855 258.09813444 65.94865036 275.38422108 C78.27557155 290.06806629 84.88856741 307.18480749 87.25724411 326.13422108 C94.18724411 326.13422108 101.11724411 326.13422108 108.25724411 326.13422108 C108.25724411 319.84766681 108.10013621 314.92725511 106.63224411 309.00922108 C106.45330612 308.2791283 106.27436813 307.54903553 106.09000778 306.79681873 C101.19932607 287.73326731 92.10902622 272.02797829 78.25724411 258.13422108 C77.39615036 257.26668201 76.53505661 256.39914295 75.64786911 255.50531483 C61.87093161 241.840934 44.97737809 233.0506199 26.25724411 228.13422108 C24.97333786 227.79390858 24.97333786 227.79390858 23.66349411 227.44672108 C14.64546251 225.44271405 5.43806742 226.00399663 -3.74275589 226.13422108 Z M195.87638474 263.26947498 C180.98625803 280.41826687 171.25724411 303.3983301 171.25724411 326.13422108 C178.18724411 326.13422108 185.11724411 326.13422108 192.25724411 326.13422108 C192.77286911 323.16422108 193.28849411 320.19422108 193.81974411 317.13422108 C198.1977897 294.39956297 210.16368641 275.14136847 229.38224411 261.94672108 C245.9497519 251.03849398 263.7067304 247.93547164 283.25724411 247.13422108 C283.25724411 240.20422108 283.25724411 233.27422108 283.25724411 226.13422108 C248.75725056 225.10437052 219.36869169 237.62258788 195.87638474 263.26947498 Z M-3.74275589 260.13422108 C-3.81229017 268.14890071 -3.86558429 276.16345415 -3.89819241 284.17836094 C-3.91384331 287.90008422 -3.93507067 291.62160101 -3.96907425 295.34320545 C-4.00168884 298.93530015 -4.01961323 302.52719633 -4.02738762 306.11942768 C-4.03292741 307.48936812 -4.04374541 308.85929779 -4.05994606 310.22915363 C-4.08174544 312.1488989 -4.08298151 314.06884426 -4.08333206 315.98871326 C-4.0899939 317.08125416 -4.09665573 318.17379505 -4.10351944 319.29944324 C-3.68154245 322.61521898 -3.29698059 323.95845388 -0.74275589 326.13422108 C1.81010465 326.51699899 3.93179766 326.64144662 6.48258591 326.58832264 C7.58051971 326.5891988 7.58051971 326.5891988 8.700634 326.59009266 C11.11972628 326.58730614 13.5375859 326.55618946 15.95646286 326.52484608 C17.63368685 326.51738565 19.31091955 326.51169178 20.98815536 326.5076952 C25.40247797 326.49242308 29.81627406 326.45312806 34.23038864 326.40887928 C38.73471071 326.36796036 43.23911787 326.34969143 47.74357224 326.32953358 C56.58169418 326.28663503 65.41942536 326.21836488 74.25724411 326.13422108 C74.11882773 324.38701363 73.97453487 322.64027114 73.82780075 320.89374256 C73.74808533 319.92097874 73.6683699 318.94821491 73.58623886 317.9459734 C73.1387096 314.12116639 72.10752064 310.76225612 70.69474411 307.19672108 C70.42935837 306.51706287 70.16397263 305.83740467 69.89054489 305.13715076 C62.18322252 286.26153224 47.50333407 273.07543136 29.19474411 264.82172108 C20.5420686 261.3062787 13.2011987 260.0277934 3.93693161 260.09515858 C3.19692917 260.0979784 2.45692673 260.10079823 1.69449997 260.1037035 C-0.11793244 260.11101759 -1.93034842 260.12222544 -3.74275589 260.13422108 Z M229.25724411 278.13422108 C228.4979863 278.81226795 227.73872849 279.49031483 226.95646286 280.18890858 C215.82408352 290.70386184 208.04261059 305.02983537 205.25724411 320.13422108 C205.23825616 322.13413094 205.23607672 324.13433309 205.25724411 326.13422108 C214.98417148 326.20367775 224.71104002 326.25701025 234.43816471 326.28965759 C238.95468837 326.30532531 243.47104259 326.32658365 247.98746872 326.36053944 C252.34465008 326.39309363 256.70166829 326.41106575 261.05896187 326.41885281 C262.72278729 326.42440342 264.38660361 326.43524225 266.05035973 326.45141125 C268.37773815 326.47313358 270.70443912 326.47619025 273.03190231 326.47479725 C274.06768166 326.49097599 274.06768166 326.49097599 275.12438583 326.50748158 C277.83256703 326.48989849 279.82793273 326.3874423 282.18754196 324.99567127 C283.74736673 322.28133053 283.61650626 320.13099986 283.59782028 317.01044178 C283.59759369 315.749361 283.5973671 314.48828022 283.59713364 313.18898487 C283.58181374 311.81265375 283.56616575 310.43632625 283.55021286 309.06000233 C283.54461671 307.65181905 283.5403467 306.24362993 283.5373497 304.83543873 C283.52590229 301.13140164 283.49643646 297.42771818 283.46323776 293.72382069 C283.43253437 289.94335177 283.41884382 286.16282564 283.40372849 282.38226795 C283.37156627 274.96609121 283.32037166 267.55020572 283.25724411 260.13422108 C280.74924784 260.09159386 278.24199493 260.06082867 275.73380661 260.03656483 C275.03457077 260.02347279 274.33533493 260.01038074 273.61491013 259.99689198 C257.37031663 259.87958555 241.21892838 267.40685695 229.25724411 278.13422108 Z " fill="#B68733" transform="translate(112.74275588989258,92.86577892303467)"/>
<path d="M0 0 C9.18531373 -0.08832032 18.32593078 0.02454636 27.50585938 0.3581543 C54.26403001 1.32353539 81.02749114 1.34813009 107.79138184 0.56964111 C123.89579056 0.10158033 139.99692372 -0.16507637 156.10830688 -0.23217773 C158.49699094 -0.24386784 160.88565638 -0.26077803 163.27426147 -0.28344727 C193.44904143 -0.5550104 222.73270811 2.92257088 246 24 C246.81855469 24.72574219 247.63710938 25.45148438 248.48046875 26.19921875 C266.4309013 43.03644618 276.12762219 67.35240345 277.16113281 91.8137207 C277.18069999 93.18433936 277.19444546 94.55505041 277.203125 95.92578125 C277.21013931 96.66657928 277.21715363 97.40737732 277.22438049 98.17062378 C277.2418111 100.5513115 277.24823353 102.9317508 277.25 105.3125 C277.25067474 106.1240152 277.25134949 106.9355304 277.25204468 107.77163696 C277.23657733 119.45208562 276.9040692 130.62864471 274 142 C273.82839355 142.69464355 273.65678711 143.38928711 273.47998047 144.10498047 C268.28862222 164.74515283 258.97877136 183.87691226 245 200 C244.32582031 200.80695313 243.65164063 201.61390625 242.95703125 202.4453125 C219.96333823 229.16658053 185.15152057 245.44585911 150.27734375 248.69140625 C133.62585316 249.87053888 116.65572465 249.28707176 100 248.5 C66.72511798 246.95904642 33.27580615 247.85748305 0 249 C0 244.38 0 239.76 0 235 C2.09601562 234.54109375 4.19203125 234.0821875 6.3515625 233.609375 C8.39766802 233.15227377 10.44275343 232.6908479 12.48779297 232.22900391 C13.90084822 231.91230132 15.31490871 231.60004768 16.72998047 231.29248047 C18.77336789 230.8475145 20.81250809 230.3862435 22.8515625 229.921875 C24.07697754 229.64956055 25.30239258 229.37724609 26.56494141 229.09667969 C30.46661099 227.85102939 32.93029988 226.73554962 36 224 C39.78161982 215.71017987 39.41091016 207.32332621 39.35644531 198.39550781 C39.35723724 196.72071221 39.35933773 195.0459168 39.36264038 193.37112427 C39.36775436 188.84191461 39.35427657 184.31293396 39.33711338 179.78376102 C39.3220118 175.02794541 39.32324975 170.27213197 39.32244873 165.51629639 C39.31876115 157.52710089 39.3038238 149.53799156 39.28125 141.54882812 C39.25242098 131.32568905 39.24202855 121.10261944 39.2375679 110.87944412 C39.23357148 102.05603416 39.22107009 93.232639 39.20722103 84.40923977 C39.20314294 81.59052756 39.20020667 78.77181586 39.19742584 75.95310211 C39.19248993 71.50431694 39.18221574 67.05557255 39.16798782 62.60680771 C39.16350959 60.98358149 39.16063694 59.36034982 39.15958023 57.73711777 C40.17436352 39.62290269 40.17436352 39.62290269 35 23 C32.47750902 21.67884535 30.69195542 20.9779676 28 20.3125 C27.31099609 20.11954346 26.62199219 19.92658691 25.91210938 19.7277832 C17.37568823 17.41219345 8.67816789 15.68846962 0 14 C0 9.38 0 4.76 0 0 Z M99.84561157 23.27897644 C98.48299163 23.48152936 98.48299163 23.48152936 97.09284401 23.68817425 C96.40220549 23.79107675 95.71156696 23.89397924 95 24 C93.93224091 41.16184912 93.85077016 58.30402587 93.8656745 75.49124694 C93.86825726 79.42037883 93.86584388 83.34950873 93.86428833 87.27864075 C93.86248074 93.88392563 93.86483263 100.48919926 93.86962891 107.09448242 C93.87503928 114.63040334 93.87332669 122.16629705 93.8678025 129.70221728 C93.86319507 136.26023273 93.86265814 142.81824021 93.86524117 149.37625676 C93.86676664 153.25365694 93.8671054 157.13104457 93.86370468 161.00844383 C93.84746666 182.35621912 94.25639365 203.66499075 95 225 C96.59614363 225.24067028 98.1923402 225.48098941 99.78855896 225.72116089 C100.67743522 225.85502638 101.56631147 225.98889187 102.48212337 226.12681389 C130.35759093 230.25836555 158.25828957 230.00212811 182 213 C182.63421875 212.55140625 183.2684375 212.1028125 183.921875 211.640625 C202.89872687 196.84216253 212.10433812 168.93808949 215 146 C216.98741066 128.53973585 216.98741066 128.53973585 217 111 C216.9383667 109.85942139 216.9383667 109.85942139 216.87548828 108.69580078 C215.46650829 84.74314101 210.90433627 60.13072929 194 42 C193.36320312 41.28457031 192.72640625 40.56914062 192.0703125 39.83203125 C180.13202303 27.05470537 162.71642877 21.82872151 145.61376953 20.79541016 C141.98986027 20.69593821 138.3752253 20.67236533 134.75 20.6875 C133.45690918 20.68878906 132.16381836 20.69007812 130.83154297 20.69140625 C120.37883271 20.79399695 110.17707863 21.74166148 99.84561157 23.27897644 Z " fill="#B68733" transform="translate(706,94)"/>
<path d="M0 0 C9.19734701 -0.04579909 18.38816563 -0.06576038 27.58203125 0.21875 C28.66829552 0.2521196 28.66829552 0.2521196 29.77650452 0.28616333 C30.52403488 0.30919525 31.27156525 0.33222717 32.04174805 0.35595703 C53.08796882 1.00392266 74.13314392 1.125 95.1875 1.125 C95.93615326 1.125 96.68480652 1.125 97.45614624 1.125 C120.91085592 1.11995632 144.35403769 0.8836157 167.8034668 0.35595703 C182.20483116 0.03463255 196.59507136 -0.06005663 211 0 C211.08040527 1.26368408 211.16081055 2.52736816 211.24365234 3.8293457 C211.5491372 8.61394565 211.85980653 13.39819838 212.171875 18.18237305 C212.30507846 20.23501914 212.43696067 22.28775149 212.56738281 24.34057617 C213.41124037 37.60536783 214.52007241 50.7900376 216 64 C210.39 64 204.78 64 199 64 C198.41992188 62.32292969 197.83984375 60.64585937 197.2421875 58.91796875 C196.45361958 56.67430528 195.66452908 54.43082543 194.875 52.1875 C194.49601563 51.08728516 194.11703125 49.98707031 193.7265625 48.85351562 C189.86691845 36.59682714 189.86691845 36.59682714 182.28662109 26.69165039 C176.38670557 23.9948456 169.71886893 23.84793708 163.34228516 23.79467773 C162.60013763 23.78477814 161.85799011 23.77487854 161.09335327 23.76467896 C158.6586213 23.73328083 156.22386986 23.70839303 153.7890625 23.68359375 C152.0936942 23.66300545 150.39833082 23.6420085 148.70297241 23.62062073 C144.25445554 23.56559369 139.80589384 23.5160995 135.3572998 23.46777344 C130.81237834 23.41741645 126.26752146 23.3618047 121.72265625 23.30664062 C112.81515943 23.19929617 103.90760638 23.09779916 95 23 C95.00261841 23.55945313 95.00523682 24.11890625 95.00793457 24.6953125 C95.07705246 42.10952027 94.84446855 59.51451654 94.53643799 76.92523193 C94.4746008 80.44622256 94.41515432 83.96725361 94.35546875 87.48828125 C94.23923535 94.32556067 94.12048793 101.16279425 94 108 C99.86790696 107.93039119 105.7351502 107.84208496 111.60253906 107.73754883 C113.59237204 107.70459925 115.58229177 107.67647751 117.57226562 107.65356445 C134.61754557 107.90297624 134.61754557 107.90297624 151 104 C158.80722283 95.6748574 161.06513583 82.76116863 164 72 C169.28 72 174.56 72 180 72 C179.75636719 75.85171875 179.75636719 75.85171875 179.5078125 79.78125 C178.85047888 91.47976274 178.84894737 103.17448183 178.86962891 114.88818359 C178.87499183 118.49450889 178.86964852 122.10070969 178.86328125 125.70703125 C178.85990445 138.8468487 179.17046787 151.88549205 180 165 C174.72 165 169.44 165 164 165 C163.61328125 163.3603125 163.2265625 161.720625 162.828125 160.03125 C162.30259245 157.85404371 161.77652229 155.67696715 161.25 153.5 C160.99734375 152.42234375 160.7446875 151.3446875 160.484375 150.234375 C158.39316666 139.86899099 158.39316666 139.86899099 152.24707031 131.85351562 C145.92332799 129.45153788 139.14636264 129.78836171 132.4765625 129.68359375 C131.01126099 129.65561707 131.01126099 129.65561707 129.51635742 129.6270752 C125.88599223 129.55905338 122.2554861 129.49872912 118.625 129.4375 C110.49875 129.293125 102.3725 129.14875 94 129 C94 160.68 94 192.36 94 225 C107.220625 224.896875 120.44125 224.79375 134.0625 224.6875 C138.2275415 224.66260498 142.39258301 224.63770996 146.68383789 224.61206055 C150.43726875 224.57546987 150.43726875 224.57546987 154.19065857 224.5349884 C155.85447428 224.51890346 157.51835198 224.50857155 159.18223572 224.50288391 C161.71174963 224.49309652 164.24046205 224.46470431 166.76977539 224.43237305 C167.50342599 224.43379901 168.23707659 224.43522497 168.99295902 224.43669415 C176.75761953 224.29565467 182.24347311 221.44153359 187.85546875 216.2265625 C194.0612372 209.78341493 199.04204415 202.95082248 203.1875 195.04296875 C211.72329806 179.07336037 211.72329806 179.07336037 216.18945312 176.96777344 C220.98811969 176.02584363 225.32592505 176.74346297 230 178 C229.37802786 183.74446345 227.89049992 188.8857407 226.05078125 194.3515625 C225.60813179 195.69364273 225.60813179 195.69364273 225.15653992 197.06283569 C224.21407374 199.9187628 223.26403673 202.77208338 222.3125 205.625 C217.52815978 219.99679258 213.04689588 234.40196752 209 249 C207.79811035 248.96970703 206.5962207 248.93941406 205.35791016 248.90820312 C170.46085504 248.05998636 135.56880121 247.88725101 100.66265106 247.87661743 C97.2412638 247.87502502 93.81988368 247.87148335 90.39849854 247.86743164 C60.25191595 247.83576297 30.13573172 248.18048965 0 249 C0 244.38 0 239.76 0 235 C2.6296875 234.4121875 2.6296875 234.4121875 5.3125 233.8125 C7.87644811 233.21386894 10.43867333 232.60961893 13 232 C14.19592773 231.71866211 14.19592773 231.71866211 15.41601562 231.43164062 C17.96896193 230.82435779 20.51586507 230.19568172 23.0625 229.5625 C24.29383667 229.27306519 24.29383667 229.27306519 25.55004883 228.9777832 C30.02727486 227.84168768 33.26736027 226.97289017 36 223 C38.33543828 216.70266699 38.34574655 210.63869796 38.4140625 203.97265625 C38.43351929 202.75664734 38.45297607 201.54063843 38.47302246 200.28778076 C38.52365436 196.92149661 38.56507531 193.55536121 38.60129547 190.18890762 C38.62511576 188.05211589 38.65232856 185.91539316 38.68060303 183.77865601 C39.01811381 158.08069134 39.10305344 132.38108246 39.12248993 106.68113327 C39.12496711 103.85009272 39.12892393 101.01905727 39.13311768 98.1880188 C39.15490707 80.90498658 39.15840597 63.61651337 38.72799301 46.33774376 C38.68137597 44.39459964 38.64699168 42.45117388 38.61306763 40.50776672 C38.42655228 34.3115545 38.13212529 29.41863323 35 24 C30.66374303 20.27056616 26.33045368 19.01702557 20.875 17.875 C20.13451416 17.71032227 19.39402832 17.54564453 18.63110352 17.37597656 C12.4551914 16.02831074 6.24958805 14.94930451 0 14 C0 9.38 0 4.76 0 0 Z " fill="#B68733" transform="translate(466,94)"/>
<path d="M0 0 C10.46587522 -0.09428716 20.88596655 0.06910918 31.34628296 0.42880249 C57.67880093 1.32531857 83.93814853 1.18668274 110.265625 0.22265625 C117.85155105 -0.04736206 125.41025416 -0.0782448 133 0 C133 4.62 133 9.24 133 14 C131.37191406 14.25394531 129.74382812 14.50789063 128.06640625 14.76953125 C125.89837408 15.11679181 123.73040883 15.46447027 121.5625 15.8125 C120.49322266 15.97814453 119.42394531 16.14378906 118.32226562 16.31445312 C106.47026643 17.68966547 106.47026643 17.68966547 97 24 C95.28793761 29.00102894 94.71231707 33.56678708 94.74603271 38.81126404 C94.74291273 39.56705767 94.73979275 40.32285131 94.73657823 41.10154778 C94.72864194 43.6178282 94.73490472 46.13386454 94.74121094 48.65014648 C94.73849911 50.4608372 94.7349371 52.27152682 94.73059082 54.08221436 C94.72148673 58.98923289 94.7250031 63.89616716 94.73134899 68.80318713 C94.73641999 73.944401 94.7317144 79.08560775 94.72857666 84.2268219 C94.7249399 92.86094454 94.72972817 101.49503295 94.73925781 110.12915039 C94.75013835 120.10219488 94.74661852 130.07515757 94.735605 140.04820007 C94.72651976 148.61910305 94.72525301 157.18998144 94.73048234 165.76088768 C94.73359567 170.87622897 94.73402894 175.99153185 94.72740936 181.10687065 C94.72161868 185.9175943 94.72566433 190.72821284 94.73719788 195.53892517 C94.73983539 197.30131926 94.73909493 199.06372224 94.73467255 200.82611275 C94.72917959 203.23811079 94.73609637 205.64977533 94.74603271 208.06175232 C94.74157127 208.75350018 94.73710983 209.44524805 94.73251319 210.15795797 C94.77184622 215.10552934 95.53427815 219.30382886 97 224 C101.62541494 228.35590257 107.27714104 229.32652221 113.3125 230.625 C114.21162109 230.82867187 115.11074219 231.03234375 116.03710938 231.2421875 C118.68885476 231.84041205 121.34385788 232.42165047 124 233 C125.72283376 233.38201282 127.4455031 233.76476831 129.16796875 234.1484375 C130.43253906 234.42945313 131.69710938 234.71046875 133 235 C133 239.62 133 244.24 133 249 C131.4325 248.9278125 129.865 248.855625 128.25 248.78125 C108.60860076 247.98246091 88.96768673 247.875 69.3125 247.875 C68.61569122 247.875 67.91888245 247.875 67.20095825 247.875 C44.78853513 247.88018619 22.39784135 248.16157813 0 249 C0 244.38 0 239.76 0 235 C2.660625 234.38125 2.660625 234.38125 5.375 233.75 C6.54804687 233.47542969 7.72109375 233.20085937 8.9296875 232.91796875 C11.84306452 232.2479355 14.76403708 231.63739512 17.6953125 231.05078125 C18.49146973 230.88674805 19.28762695 230.72271484 20.10791016 230.55371094 C21.67560405 230.23178808 23.24559763 229.92082546 24.81787109 229.62207031 C29.43574689 228.65835743 32.76920564 227.65875406 36 224 C37.64152689 218.60809267 38.25071917 213.89448007 38.25396729 208.22706604 C38.25864726 207.11765361 38.25864726 207.11765361 38.26342177 205.98582882 C38.27134044 203.53026416 38.26510229 201.07495086 38.25878906 198.61938477 C38.26150168 196.8495774 38.26506413 195.07977116 38.26940918 193.30996704 C38.27850393 188.51863866 38.27500077 183.7273967 38.26865101 178.93606687 C38.26357513 173.91277416 38.26828695 168.88948868 38.27142334 163.86619568 C38.27505869 155.43055905 38.27027554 146.99495748 38.26074219 138.55932617 C38.24986201 128.81974334 38.25338179 119.08024429 38.264395 109.34066349 C38.27348436 100.96590128 38.27474498 92.59116421 38.26951766 84.21639866 C38.26640658 79.22008863 38.26596483 74.22381792 38.27259064 69.22751045 C38.27838734 64.52839507 38.27432477 59.82938718 38.26280212 55.13028336 C38.2601678 53.41023499 38.26089955 51.69017751 38.26532745 49.97013283 C38.90802687 36.09797015 38.90802687 36.09797015 34.22265625 23.5625 C25.10085413 17.14998533 10.75572305 16.13524386 0 14 C0 9.38 0 4.76 0 0 Z " fill="#B68733" transform="translate(1351,94)"/>
<path d="M0 0 C53.13 0 106.26 0 161 0 C161 4.29 161 8.58 161 13 C107.87 13 54.74 13 0 13 C0 8.71 0 4.42 0 0 Z " fill="#B68733" transform="translate(172,162)"/>
<path d="M0 0 C36.96 0 73.92 0 112 0 C112 3.96 112 7.92 112 12 C75.04 12 38.08 12 0 12 C0 8.04 0 4.08 0 0 Z " fill="#B68733" transform="translate(197,136)"/>
<path d="M0 0 C2.97 0 5.94 0 9 0 C9.23710693 0.69150146 9.47421387 1.38300293 9.71850586 2.09545898 C10.78849543 5.21051561 11.86293565 8.32401869 12.9375 11.4375 C13.31068359 12.52611328 13.68386719 13.61472656 14.06835938 14.73632812 C14.42607422 15.77080078 14.78378906 16.80527344 15.15234375 17.87109375 C15.48226318 18.82943115 15.81218262 19.78776855 16.15209961 20.77514648 C16.80334076 22.93965248 16.80334076 22.93965248 18 24 C18.3556604 22.9627478 18.3556604 22.9627478 18.71850586 21.90454102 C19.78849543 18.78948439 20.86293565 15.67598131 21.9375 12.5625 C22.31068359 11.47388672 22.68386719 10.38527344 23.06835938 9.26367188 C23.60493164 7.71196289 23.60493164 7.71196289 24.15234375 6.12890625 C24.48226318 5.17056885 24.81218262 4.21223145 25.15209961 3.22485352 C26 1 26 1 27 0 C29.64 0 32.28 0 35 0 C35 17.82 35 35.64 35 54 C32.36 54 29.72 54 27 54 C26.505 41.13 26.505 41.13 26 28 C24.3962364 32.89040176 24.3962364 32.89040176 22.79907227 37.78295898 C21.11111111 42.88888889 21.11111111 42.88888889 20 44 C18.35 44 16.7 44 15 44 C13.35 39.38 11.7 34.76 10 30 C9.67 37.92 9.34 45.84 9 54 C6.03 54 3.06 54 0 54 C0 36.18 0 18.36 0 0 Z " fill="#B68733" transform="translate(974,378)"/>
<path d="M0 0 C2.97 0 5.94 0 9 0 C11.97 8.25 14.94 16.5 18 25 C18.33 16.75 18.66 8.5 19 0 C21.97 0 24.94 0 28 0 C28 17.82 28 35.64 28 54 C25.03 54 22.06 54 19 54 C14.545 41.625 14.545 41.625 10 29 C9.67 37.25 9.34 45.5 9 54 C6.03 54 3.06 54 0 54 C0 36.18 0 18.36 0 0 Z " fill="#B68733" transform="translate(768,378)"/>
<path d="M0 0 C18 0 18 0 23 3 C27.20829086 7.65917917 27.28011894 12.47155988 27.2265625 18.5234375 C26.82414766 22.92224805 25.07199892 25.92800108 22 29 C23.32499518 37.53885783 26.36072926 45.79005476 29 54 C25.7 54 22.4 54 19 54 C17.99496261 50.7306373 16.99578359 47.45968077 16 44.1875 C15.71382812 43.25873047 15.42765625 42.32996094 15.1328125 41.37304688 C14.86210938 40.48037109 14.59140625 39.58769531 14.3125 38.66796875 C14.06113281 37.84578857 13.80976562 37.0236084 13.55078125 36.17651367 C13 34 13 34 13 31 C11.68 31 10.36 31 9 31 C9 38.59 9 46.18 9 54 C6.03 54 3.06 54 0 54 C0 36.18 0 18.36 0 0 Z M9 8 C9 12.95 9 17.9 9 23 C11.31 23 13.62 23 16 23 C18.51012963 20.48987037 18.29721609 19.53194763 18.3125 16.0625 C18.32925781 15.18722656 18.34601563 14.31195313 18.36328125 13.41015625 C18.16323079 10.98986729 18.16323079 10.98986729 16.85546875 9.18359375 C14.5237289 7.46220606 14.5237289 7.46220606 9 8 Z " fill="#B68733" transform="translate(1253,378)"/>
<path d="M0 0 C18 0 18 0 24 4 C27.01062802 8.01417069 27.26387796 13.48687655 26.75390625 18.34375 C25.60535651 24.44224417 25.60535651 24.44224417 22.71484375 27.10546875 C20.7218394 29.78041891 20.7218394 29.78041891 21.33129883 32.31616211 C22.19056395 35.14072081 23.18138916 37.87285839 24.25 40.625 C24.94607029 42.51178394 25.63892771 44.39975718 26.328125 46.2890625 C26.6468457 47.12131348 26.96556641 47.95356445 27.29394531 48.81103516 C28 51 28 51 28 54 C25.03 54 22.06 54 19 54 C18.80365967 53.3387915 18.60731934 52.67758301 18.4050293 51.99633789 C17.51184698 49.01442655 16.59996404 46.03856481 15.6875 43.0625 C15.2244043 41.50112305 15.2244043 41.50112305 14.75195312 39.90820312 C14.44580078 38.91884766 14.13964844 37.92949219 13.82421875 36.91015625 C13.40789185 35.53549194 13.40789185 35.53549194 12.9831543 34.13305664 C12.65871338 33.42914795 12.33427246 32.72523926 12 32 C11.01 31.67 10.02 31.34 9 31 C9 38.59 9 46.18 9 54 C6.03 54 3.06 54 0 54 C0 36.18 0 18.36 0 0 Z M9 8 C9 12.95 9 17.9 9 23 C11.31 23 13.62 23 16 23 C18.47082138 19.29376793 18.54464038 16.29660742 18 12 C17.06756129 9.42048316 17.06756129 9.42048316 15 8 C13.02 8 11.04 8 9 8 Z " fill="#B68733" transform="translate(1075,378)"/>
<path d="M0 0 C2.9576473 2.29217666 3.81597278 3.44791835 5 7 C5.12110727 9.81812956 5.18815045 12.61074696 5.203125 15.4296875 C5.20882507 16.257034 5.21452515 17.08438049 5.22039795 17.9367981 C5.22984023 19.68685632 5.23637887 21.43693227 5.24023438 23.18701172 C5.24993847 25.85806431 5.28096785 28.52834675 5.3125 31.19921875 C5.31903058 32.90103711 5.32428084 34.60286096 5.328125 36.3046875 C5.3404718 37.10067352 5.3528186 37.89665955 5.36553955 38.71676636 C5.34719466 43.30576045 4.9675697 46.27162775 2 50 C-2.78757946 53.22883266 -6.40805268 53.53256641 -12 53 C-15.20824247 51.50282018 -17.72932114 49.72481464 -20 47 C-21.24850053 43.25449841 -21.20106632 39.72874234 -21.23828125 35.82421875 C-21.246353 35.02143997 -21.25442474 34.21866119 -21.26274109 33.39155579 C-21.2765645 31.69278105 -21.28729445 29.99397875 -21.29516602 28.29516602 C-21.31236835 25.70730492 -21.35626692 23.12072541 -21.40039062 20.53320312 C-21.41051922 18.8802177 -21.41903481 17.22722144 -21.42578125 15.57421875 C-21.44328934 14.80526779 -21.46079742 14.03631683 -21.47883606 13.24406433 C-21.45801574 8.04439495 -20.40002203 5.14723154 -17 1 C-11.68395556 -2.82481998 -5.85468312 -2.37414315 0 0 Z M-10 7 C-12.49742403 9.49742403 -12.23676464 10.97717611 -12.25224304 14.38478088 C-12.24505753 15.11502975 -12.23787201 15.84527863 -12.23046875 16.59765625 C-12.23001053 17.34712021 -12.22955231 18.09658417 -12.2290802 18.86875916 C-12.22605811 20.45329369 -12.21817306 22.03782526 -12.20581055 23.62231445 C-12.18754683 26.05625858 -12.18530089 28.48982262 -12.18554688 30.92382812 C-12.18063201 32.46094081 -12.17480382 33.9980509 -12.16796875 35.53515625 C-12.16685593 36.26742935 -12.1657431 36.99970245 -12.16459656 37.75416565 C-12.43484308 41.16523002 -12.43484308 41.16523002 -11 44 C-8.04195427 44.33340471 -8.04195427 44.33340471 -5 44 C-1.75035452 39.12553178 -2.66699249 33.39855582 -2.68432617 27.69384766 C-2.68748896 25.50763231 -2.66401095 23.32276708 -2.63867188 21.13671875 C-2.63639906 19.74739754 -2.6356953 18.35807269 -2.63671875 16.96875 C-2.63373779 15.70482422 -2.63075684 14.44089844 -2.62768555 13.13867188 C-2.75606016 10.0567582 -2.75606016 10.0567582 -4.27270508 8.06445312 C-6.22939465 6.65024373 -6.22939465 6.65024373 -10 7 Z " fill="#B68733" transform="translate(533,379)"/>
<path d="M0 0 C2.59457559 2.20814944 4.4780441 3.95608819 6 7 C6.12334212 9.71296605 6.1884001 12.39924215 6.203125 15.11328125 C6.20882507 15.91984665 6.21452515 16.72641205 6.22039795 17.55741882 C6.22985195 19.26637458 6.23638352 20.9753486 6.24023438 22.68432617 C6.2499232 25.29183041 6.280935 27.89854078 6.3125 30.50585938 C6.31903185 32.16666199 6.32428161 33.82747024 6.328125 35.48828125 C6.3404718 36.26553055 6.3528186 37.04277985 6.36553955 37.84358215 C6.34256234 43.46278149 5.09596239 46.55471055 1.5 50.75 C-1.59524422 53.32937018 -5.0522924 53.27912108 -8.9375 53.21484375 C-12.16693357 52.87844442 -14.32660471 51.80298752 -17 50 C-20.37469337 45.72953918 -20.45314542 41.64882929 -20.43359375 36.41015625 C-20.4388356 35.58801132 -20.44407745 34.76586639 -20.44947815 33.91880798 C-20.45588401 32.18489712 -20.45457996 30.45094271 -20.44604492 28.71704102 C-20.43753779 26.07423966 -20.46630925 23.43360354 -20.49804688 20.79101562 C-20.49965924 19.10156314 -20.49908067 17.41210686 -20.49609375 15.72265625 C-20.50732773 14.93810562 -20.51856171 14.15355499 -20.53013611 13.3452301 C-20.46429543 8.12204597 -19.4587003 5.13767531 -16 1 C-10.58269703 -2.61153531 -5.9036656 -2.45687902 0 0 Z M-10.72729492 8.57202148 C-12.41847642 11.79834031 -12.37218954 14.21138829 -12.36328125 17.84765625 C-12.36377975 18.50076279 -12.36427826 19.15386932 -12.36479187 19.82676697 C-12.36245844 21.20265762 -12.35277298 22.57855311 -12.33618164 23.9543457 C-12.31253769 26.05914459 -12.31563177 28.16267969 -12.32226562 30.26757812 C-12.60478369 37.49741984 -12.60478369 37.49741984 -10 44 C-6.91634129 44.2502157 -6.91634129 44.2502157 -4 44 C-0.69206846 38.59323158 -1.67206769 32.189126 -1.6875 26.0625 C-1.67138672 24.78697266 -1.65527344 23.51144531 -1.63867188 22.19726562 C-1.63802734 20.96814453 -1.63738281 19.73902344 -1.63671875 18.47265625 C-1.63373779 17.35125244 -1.63075684 16.22984863 -1.62768555 15.07446289 C-2.0479265 11.60423712 -2.77813745 9.69544117 -5 7 C-8.89621433 6.55127752 -8.89621433 6.55127752 -10.72729492 8.57202148 Z " fill="#B68733" transform="translate(742,379)"/>
<path d="M0 0 C2.97 0 5.94 0 9 0 C9.33 14.52 9.66 29.04 10 44 C11.65 44 13.3 44 15 44 C16.52791083 42.47208917 16.16183457 41.07010592 16.20532227 38.93920898 C16.22526749 38.07839218 16.24521271 37.21757538 16.26576233 36.33067322 C16.28247482 35.39526199 16.29918732 34.45985077 16.31640625 33.49609375 C16.33718735 32.54307877 16.35796844 31.59006378 16.37937927 30.60816956 C16.44498177 27.5513559 16.50380918 24.49445344 16.5625 21.4375 C16.60567506 19.37043337 16.64928901 17.30337586 16.69335938 15.23632812 C16.80067401 10.15764405 16.90191091 5.0788703 17 0 C19.64 0 22.28 0 25 0 C25.10162708 6.44110602 25.17156052 12.8820044 25.21972656 19.32373047 C25.23981107 21.51391324 25.26708417 23.70404259 25.30175781 25.89404297 C25.35041409 29.04668376 25.37300078 32.19861404 25.390625 35.3515625 C25.41127014 36.32678864 25.43191528 37.30201477 25.45318604 38.30679321 C25.45512069 44.20122457 24.90653382 47.49969485 21 52 C17.58135332 54.31955514 14.37468126 54.53067602 10.32421875 54.45703125 C6.27541474 53.66087987 3.56501906 51.13756796 1 48 C0.05662624 45.16987873 -0.12172829 43.45700082 -0.11352539 40.52856445 C-0.11344986 39.62785721 -0.11337433 38.72714996 -0.11329651 37.79914856 C-0.10813522 36.83031235 -0.10297394 35.86147614 -0.09765625 34.86328125 C-0.0962413 33.86870407 -0.09482635 32.87412689 -0.09336853 31.84941101 C-0.08776761 28.67041018 -0.07521496 25.49147957 -0.0625 22.3125 C-0.05748512 20.15820414 -0.05292219 18.00390718 -0.04882812 15.84960938 C-0.03779787 10.56637916 -0.02053262 5.28320149 0 0 Z " fill="#B68733" transform="translate(601,378)"/>
<path d="M0 0 C3.33834281 4.14763804 3.16013457 7.38786789 3.0625 12.5625 C0.0925 12.5625 -2.8775 12.5625 -5.9375 12.5625 C-6.2675 10.2525 -6.5975 7.9425 -6.9375 5.5625 C-9.2475 5.5625 -11.5575 5.5625 -13.9375 5.5625 C-14.22523309 8.61247071 -14.35576869 11.52054589 -13.9375 14.5625 C-11.95731101 16.57054027 -11.95731101 16.57054027 -8.9375 17.5625 C-0.12435179 21.57471144 -0.12435179 21.57471144 2.0625 25.5625 C3.95338223 31.23514668 4.03045085 37.97479844 1.75 43.5625 C-0.48031573 47.52750574 -1.61701068 49.12233689 -5.9375 50.5625 C-11.36660777 51.09117716 -15.50928697 51.07902211 -19.9375 47.5625 C-22.34629165 45.49782144 -22.90081553 44.67255341 -23.9375 41.5625 C-23.97704234 39.22950175 -23.98151732 36.89541811 -23.9375 34.5625 C-20.9675 34.5625 -17.9975 34.5625 -14.9375 34.5625 C-14.6075 36.8725 -14.2775 39.1825 -13.9375 41.5625 C-11.6275 41.5625 -9.3175 41.5625 -6.9375 41.5625 C-6.9375 37.6025 -6.9375 33.6425 -6.9375 29.5625 C-7.84113281 29.10359375 -8.74476563 28.6446875 -9.67578125 28.171875 C-10.8674477 27.55258377 -12.05883966 26.93276415 -13.25 26.3125 C-14.42175781 25.70921875 -15.59351563 25.1059375 -16.80078125 24.484375 C-20.26779227 22.36012914 -22.18645122 20.5425377 -23.625 16.75 C-24.50921717 10.56047982 -23.96399899 6.09368782 -20.9375 0.5625 C-14.52238479 -5.85261521 -6.84238523 -5.67772391 0 0 Z " fill="#B68733" transform="translate(880.9375,381.4375)"/>
<path d="M0 0 C3.46070069 3.46070069 4.28694886 5.59981808 4.3125 10.4375 C4.27125 11.675 4.23 12.9125 4.1875 14.1875 C1.2175 14.1875 -1.7525 14.1875 -4.8125 14.1875 C-5.4725 11.8775 -6.1325 9.5675 -6.8125 7.1875 C-10.10325996 7.56654208 -10.10325996 7.56654208 -12.8125 9.1875 C-13.31281206 12.60321853 -13.31281206 12.60321853 -12.8125 16.1875 C-10.79494913 18.0521327 -10.79494913 18.0521327 -7.8125 19.1875 C-6.43309293 19.84499948 -5.05829094 20.51222107 -3.6875 21.1875 C-3.02492188 21.496875 -2.36234375 21.80625 -1.6796875 22.125 C1.62860385 24.00754236 2.97725054 25.55675162 4.1875 29.1875 C4.74128994 37.16420503 4.97828742 43.6069652 -0.3125 50 C-3.65703936 52.64776032 -7.45933568 52.52166718 -11.52734375 52.46875 C-16.1471161 51.90016263 -18.85318754 49.37065203 -21.6875 45.875 C-23.09458751 42.51362427 -23.02471495 39.79515422 -22.8125 36.1875 C-19.8425 36.1875 -16.8725 36.1875 -13.8125 36.1875 C-13.4825 38.4975 -13.1525 40.8075 -12.8125 43.1875 C-9.3475 42.6925 -9.3475 42.6925 -5.8125 42.1875 C-5.8125 38.5575 -5.8125 34.9275 -5.8125 31.1875 C-6.71613281 30.72859375 -7.61976562 30.2696875 -8.55078125 29.796875 C-9.7424477 29.17758377 -10.93383966 28.55776415 -12.125 27.9375 C-13.29675781 27.33421875 -14.46851563 26.7309375 -15.67578125 26.109375 C-19.28559528 23.8976334 -21.20093359 22.21186222 -22.4296875 18.14453125 C-23.13398809 12.28603092 -22.56609421 7.47228274 -19.8125 2.1875 C-14.26859121 -3.64819347 -6.841866 -4.40920253 0 0 Z " fill="#B68733" transform="translate(1184.8125,379.8125)"/>
<path d="M0 0 C3.5881272 4.34924509 3.15114007 7.00431584 3.0625 12.5 C0.0925 12.5 -2.8775 12.5 -5.9375 12.5 C-6.5975 10.19 -7.2575 7.88 -7.9375 5.5 C-11.22825996 5.87904208 -11.22825996 5.87904208 -13.9375 7.5 C-14.43781206 10.91571853 -14.43781206 10.91571853 -13.9375 14.5 C-11.91994913 16.3646327 -11.91994913 16.3646327 -8.9375 17.5 C-7.55809293 18.15749948 -6.18329094 18.82472107 -4.8125 19.5 C-4.14992188 19.809375 -3.48734375 20.11875 -2.8046875 20.4375 C-0.11190961 21.96979202 1.64470535 23.36806797 2.734375 26.3203125 C3.78599537 33.3060764 4.21486834 40.50213462 0.0625 46.5 C-2.27989314 49.33039171 -4.27410336 50.30672915 -7.98828125 50.73828125 C-13.50030683 50.91915946 -16.63806765 50.28759517 -20.9375 46.5 C-24.13969742 42.55062318 -24.23152058 39.49834992 -23.9375 34.5 C-20.9675 34.5 -17.9975 34.5 -14.9375 34.5 C-14.6075 36.81 -14.2775 39.12 -13.9375 41.5 C-10.4725 41.005 -10.4725 41.005 -6.9375 40.5 C-6.9375 36.87 -6.9375 33.24 -6.9375 29.5 C-7.84113281 29.04109375 -8.74476563 28.5821875 -9.67578125 28.109375 C-10.8674477 27.49008377 -12.05883966 26.87026415 -13.25 26.25 C-14.42175781 25.64671875 -15.59351563 25.0434375 -16.80078125 24.421875 C-20.54820156 22.12582171 -22.40994651 20.46330031 -23.5546875 16.203125 C-24.17002424 10.34810268 -24.02715457 5.64546318 -20.9375 0.5 C-14.61373988 -5.99017486 -6.72954692 -5.72727398 0 0 Z " fill="#B68733" transform="translate(489.9375,381.5)"/>
<path d="M0 0 C3.02778931 2.5862367 4.79386861 4.35897994 5.30078125 8.39453125 C5.31129975 10.62094639 5.22144657 12.78553432 5 15 C2.36 15 -0.28 15 -3 15 C-3.99 12.69 -4.98 10.38 -6 8 C-7.65 8.33 -9.3 8.66 -11 9 C-11 11.97 -11 14.94 -11 18 C-10.01257812 18.45890625 -9.02515625 18.9178125 -8.0078125 19.390625 C-6.71323301 20.00977171 -5.41897893 20.62959914 -4.125 21.25 C-3.47402344 21.55035156 -2.82304688 21.85070312 -2.15234375 22.16015625 C0.42277856 23.40789592 2.59427415 24.50287438 4.421875 26.7421875 C5.28485652 30.11248019 5.36865988 33.41963197 5.375 36.875 C5.39949219 37.56980469 5.42398437 38.26460938 5.44921875 38.98046875 C5.47841124 44.14753982 4.33104226 47.08456436 1 51 C-3.20569084 53.92202617 -8.07881838 53.63649352 -13 53 C-16.2138627 51.39306865 -18.16978419 50.05663831 -20.375 47.25 C-21.33315962 43.80062538 -21.11908512 40.57255374 -21 37 C-18.36 37 -15.72 37 -13 37 C-12.34 38.98 -11.68 40.96 -11 43 C-9.02 43 -7.04 43 -5 43 C-3.73762269 40.47524538 -3.90143596 38.68799534 -3.9375 35.875 C-3.94652344 34.96492188 -3.95554687 34.05484375 -3.96484375 33.1171875 C-3.97644531 32.41851562 -3.98804688 31.71984375 -4 31 C-4.58007812 30.82984375 -5.16015625 30.6596875 -5.7578125 30.484375 C-10.71650921 28.94603345 -14.94328239 27.36410729 -19 24 C-21.82302731 18.29573863 -22.06669723 11.96610917 -20.41796875 5.8359375 C-18.68175558 2.10981791 -16.43137298 0.4062343 -12.75 -1.0625 C-8.08716791 -2.28956108 -4.33175818 -2.20354655 0 0 Z " fill="#B68733" transform="translate(1479,379)"/>
<path d="M0 0 C1.134375 0.020625 2.26875 0.04125 3.4375 0.0625 C6.31224363 10.45104192 8.83701861 20.88496708 11.15722656 31.41015625 C11.69636382 33.85265653 12.24244718 36.29353856 12.7890625 38.734375 C13.13582509 40.29678441 13.48219461 41.85928112 13.828125 43.421875 C13.99056702 44.14679138 14.15300903 44.87170776 14.32037354 45.61859131 C14.95181804 48.50064186 15.4375 51.10166752 15.4375 54.0625 C12.4675 54.0625 9.4975 54.0625 6.4375 54.0625 C5.7775 50.1025 5.1175 46.1425 4.4375 42.0625 C1.4675 42.0625 -1.5025 42.0625 -4.5625 42.0625 C-5.2225 46.0225 -5.8825 49.9825 -6.5625 54.0625 C-9.5325 54.0625 -12.5025 54.0625 -15.5625 54.0625 C-14.05574139 43.83910966 -11.84670854 33.78123618 -9.62133789 23.69506836 C-8.99317316 20.84401499 -8.37232966 17.99142888 -7.75195312 15.13867188 C-7.3546018 13.32802945 -6.95683114 11.51747899 -6.55859375 9.70703125 C-6.28045082 8.42600273 -6.28045082 8.42600273 -5.99668884 7.11909485 C-4.43313475 0.07777429 -4.43313475 0.07777429 0 0 Z M-0.5625 19.0625 C-1.5525 24.0125 -2.5425 28.9625 -3.5625 34.0625 C-1.5825 34.0625 0.3975 34.0625 2.4375 34.0625 C1.78400367 26.51211578 1.78400367 26.51211578 0.4375 19.0625 C0.1075 19.0625 -0.2225 19.0625 -0.5625 19.0625 Z " fill="#B68733" transform="translate(1220.5625,377.9375)"/>
<path d="M0 0 C2.31 0 4.62 0 7 0 C9.2272293 4.87549822 10.23556787 9.984235 11.3828125 15.19140625 C11.71150833 16.66479713 11.71150833 16.66479713 12.04684448 18.16795349 C12.50775945 20.23935486 12.96654551 22.31123095 13.42333984 24.38354492 C14.12355798 27.55596676 14.8327991 30.72627725 15.54296875 33.89648438 C15.99012669 35.91133782 16.43675922 37.92630796 16.8828125 39.94140625 C17.09527618 40.8893959 17.30773987 41.83738556 17.52664185 42.81410217 C17.72039398 43.69859543 17.91414612 44.58308868 18.11376953 45.49438477 C18.28538605 46.26984146 18.45700256 47.04529816 18.63381958 47.84425354 C19 50 19 50 19 54 C16.36 54 13.72 54 11 54 C9.72746564 50.35206816 8.67170806 46.8063457 8 43 C5.03 42.67 2.06 42.34 -1 42 C-1.66 45.96 -2.32 49.92 -3 54 C-5.97 54 -8.94 54 -12 54 C-9.3989793 40.65449445 -6.68822363 27.33822158 -3.75 14.0625 C-3.49202637 12.89033936 -3.23405273 11.71817871 -2.96826172 10.51049805 C-2.7260791 9.42551025 -2.48389648 8.34052246 -2.234375 7.22265625 C-2.02006836 6.26109619 -1.80576172 5.29953613 -1.58496094 4.30883789 C-1 2 -1 2 0 0 Z M3 19 C2.66048381 20.56116819 2.32867456 22.12401338 2 23.6875 C1.814375 24.55761719 1.62875 25.42773438 1.4375 26.32421875 C1.01027953 28.93712964 0.92383799 31.35813038 1 34 C2.98 34 4.96 34 7 34 C6.01 29.05 5.02 24.1 4 19 C3.67 19 3.34 19 3 19 Z " fill="#B68733" transform="translate(1338,378)"/>
<path d="M0 0 C7.92 0 15.84 0 24 0 C24 2.64 24 5.28 24 8 C19.05 8 14.1 8 9 8 C9 12.95 9 17.9 9 23 C13.29 23 17.58 23 22 23 C22 25.64 22 28.28 22 31 C17.71 31 13.42 31 9 31 C9 35.62 9 40.24 9 45 C13.95 45 18.9 45 24 45 C24 47.97 24 50.94 24 54 C16.08 54 8.16 54 0 54 C0 36.18 0 18.36 0 0 Z " fill="#B68733" transform="translate(1121,378)"/>
<path d="M0 0 C7.92 0 15.84 0 24 0 C24 2.64 24 5.28 24 8 C19.05 8 14.1 8 9 8 C9 12.95 9 17.9 9 23 C13.29 23 17.58 23 22 23 C22 25.64 22 28.28 22 31 C17.71 31 13.42 31 9 31 C9 35.62 9 40.24 9 45 C13.95 45 18.9 45 24 45 C24 47.97 24 50.94 24 54 C16.08 54 8.16 54 0 54 C0 36.18 0 18.36 0 0 Z " fill="#B68733" transform="translate(816,378)"/>
<path d="M0 0 C17 0 17 0 22 3 C25.90457264 7.00001775 25.77549035 11.30316825 26.05859375 16.6640625 C25.97803682 21.25043683 25.348018 25.02379433 23 29 C18.09658767 33.67534664 16.32571048 33 9 33 C9 39.93 9 46.86 9 54 C6.03 54 3.06 54 0 54 C0 36.18 0 18.36 0 0 Z M9 8 C9 13.61 9 19.22 9 25 C15.4 24.8 15.4 24.8 17 23 C17.15154969 20.8579034 17.22177745 18.70976538 17.25 16.5625 C17.27578125 15.38816406 17.3015625 14.21382813 17.328125 13.00390625 C17.21984375 12.01261719 17.1115625 11.02132813 17 10 C13.90754997 7.53774984 13.90754997 7.53774984 9 8 Z " fill="#B68733" transform="translate(1030,378)"/>
<path d="M0 0 C7.59 0 15.18 0 23 0 C23 2.64 23 5.28 23 8 C18.05 8 13.1 8 8 8 C8 12.95 8 17.9 8 23 C12.29 23 16.58 23 21 23 C21 25.64 21 28.28 21 31 C16.71 31 12.42 31 8 31 C8 35.62 8 40.24 8 45 C12.95 45 17.9 45 23 45 C23 47.97 23 50.94 23 54 C15.41 54 7.82 54 0 54 C0 36.18 0 18.36 0 0 Z " fill="#B68733" transform="translate(1417,378)"/>
<path d="M0 0 C7.59 0 15.18 0 23 0 C23 2.64 23 5.28 23 8 C18.05 8 13.1 8 8 8 C8 12.95 8 17.9 8 23 C12.29 23 16.58 23 21 23 C21 25.64 21 28.28 21 31 C16.71 31 12.42 31 8 31 C8 35.62 8 40.24 8 45 C12.95 45 17.9 45 23 45 C23 47.97 23 50.94 23 54 C15.41 54 7.82 54 0 54 C0 36.18 0 18.36 0 0 Z " fill="#B68733" transform="translate(932,378)"/>
<path d="M0 0 C2.53623119 4.35914736 2.49139874 7.52351257 2 12.4375 C-0.64 12.4375 -3.28 12.4375 -6 12.4375 C-6.99 10.1275 -7.98 7.8175 -9 5.4375 C-10.98491642 5.70426204 -10.98491642 5.70426204 -13 6.4375 C-14.10665421 9.75746264 -14.12934856 12.25438599 -14.1328125 15.75 C-14.13410156 16.99007813 -14.13539063 18.23015625 -14.13671875 19.5078125 C-14.13285156 20.80460937 -14.12898437 22.10140625 -14.125 23.4375 C-14.12886719 24.73429687 -14.13273438 26.03109375 -14.13671875 27.3671875 C-14.13542969 28.60726562 -14.13414062 29.84734375 -14.1328125 31.125 C-14.13168457 32.26324219 -14.13055664 33.40148437 -14.12939453 34.57421875 C-14.12726873 37.51082236 -14.12726873 37.51082236 -13 40.4375 C-11.35 40.4375 -9.7 40.4375 -8 40.4375 C-7.34 38.4575 -6.68 36.4775 -6 34.4375 C-3.36 34.4375 -0.72 34.4375 2 34.4375 C2.41776675 40.49511794 2.12264203 43.62775097 -2 48.4375 C-6.20319552 51.00514245 -10.19888755 51.11980714 -15 50.4375 C-19.05221557 48.37455389 -21.46281981 46.72036286 -23 42.4375 C-23.20445922 39.56180379 -23.3040784 36.78572298 -23.30078125 33.91015625 C-23.30506638 33.0842247 -23.3093515 32.25829315 -23.31376648 31.40733337 C-23.31950066 29.66324784 -23.32001676 27.91913839 -23.31567383 26.17504883 C-23.31251515 23.51276676 -23.33597905 20.85159779 -23.36132812 18.18945312 C-23.36360141 16.4921889 -23.36430448 14.79492169 -23.36328125 13.09765625 C-23.372491 12.30480728 -23.38170074 11.51195831 -23.39118958 10.69508362 C-23.35289912 6.09995053 -22.90593318 3.2066257 -20 -0.5625 C-13.78495838 -6.36320551 -6.12380105 -5.23074673 0 0 Z " fill="#B68733" transform="translate(670,381.5625)"/>
<path d="M0 0 C2.64 0 5.28 0 8 0 C8 14.85 8 29.7 8 45 C12.95 45 17.9 45 23 45 C23 47.97 23 50.94 23 54 C15.41 54 7.82 54 0 54 C0 36.18 0 18.36 0 0 Z " fill="#B68733" transform="translate(1375,378)"/>
<path d="M0 0 C2.64 0 5.28 0 8 0 C8 14.85 8 29.7 8 45 C12.95 45 17.9 45 23 45 C23 47.97 23 50.94 23 54 C15.41 54 7.82 54 0 54 C0 36.18 0 18.36 0 0 Z " fill="#B68733" transform="translate(559,378)"/>
<path d="M0 0 C2.97 0 5.94 0 9 0 C9 17.82 9 35.64 9 54 C6.03 54 3.06 54 0 54 C0 36.18 0 18.36 0 0 Z " fill="#B68733" transform="translate(1300,378)"/>
<path d="M0 0 C2.64 0 5.28 0 8 0 C8 17.82 8 35.64 8 54 C5.36 54 2.72 54 0 54 C0 36.18 0 18.36 0 0 Z " fill="#B68733" transform="translate(693,378)"/>
</svg>
